<?xml version="1.0" encoding="iso-8859-1"?>
<!-- Generator: Adobe Illustrator 18.1.1, SVG Export Plug-In . SVG Version: 6.00 Build 0)  -->
<svg version="1.1" id="Capa_1" xmlns="http://www.w3.org/2000/svg" xmlns:xlink="http://www.w3.org/1999/xlink" x="0px" y="0px"
	 viewBox="0 0 303.723 303.723" style="enable-background:new 0 0 303.723 303.723;" xml:space="preserve">
<g>
	<path style="fill:#010002;" d="M50.64,199.499h87.515v17.525h0.56c-0.838,0.718-1.67,1.447-2.393,2.333
		c-0.413,0.506-0.702,1.066-1.055,1.605l-60.145,48.957c-8.153,6.636-9.382,18.629-2.747,26.782
		c3.764,4.623,9.246,7.022,14.772,7.022c4.226,0,8.479-1.398,12.009-4.275l52.699-42.898l52.705,42.898
		c3.53,2.877,7.783,4.275,12.004,4.275c5.532,0,11.014-2.399,14.772-7.022c6.636-8.159,5.406-20.146-2.747-26.782l-60.14-48.957
		c-0.354-0.533-0.642-1.093-1.055-1.599c-0.723-0.887-1.556-1.615-2.393-2.333h0.566v-17.525h87.515
		c12.015,0,21.756-9.741,21.756-21.756V34.701c0-12.015-9.741-21.756-21.756-21.756h-70.382c0,0,0-2.899,0-6.472S172.96,0,160.945,0
		h-18.166c-12.015,0-21.756,2.899-21.756,6.472v6.472H50.64c-12.015,0-21.756,9.741-21.756,21.756v143.042
		C28.884,189.758,38.626,199.499,50.64,199.499z M66.958,51.018h169.813v110.408H66.958V51.018z"/>
	<path style="fill:#010002;" d="M217.685,65.057c-4.139-1.768-8.936,0.147-10.71,4.297l-23.225,54.325l-27.505-23.916
		c-1.746-1.517-4.047-2.219-6.347-1.942c-2.295,0.283-4.362,1.523-5.689,3.416l-14.071,20.103l-16.78-33.189
		c-1.387-2.747-4.204-4.476-7.283-4.476c-3.079,0-5.891,1.73-7.283,4.476l-22.92,45.351c-2.034,4.019-0.419,8.931,3.601,10.965
		c1.18,0.593,2.437,0.881,3.677,0.881c2.981,0,5.852-1.637,7.288-4.482l15.637-30.948l15.643,30.948
		c1.295,2.562,3.84,4.253,6.701,4.455c2.85,0.196,5.619-1.11,7.267-3.459l16.692-23.845l29.121,25.319
		c1.969,1.713,4.645,2.377,7.18,1.795c2.54-0.582,4.65-2.344,5.678-4.743l27.63-64.627
		C223.749,71.622,221.829,66.824,217.685,65.057z"/>
</g>
<g>
</g>
<g>
</g>
<g>
</g>
<g>
</g>
<g>
</g>
<g>
</g>
<g>
</g>
<g>
</g>
<g>
</g>
<g>
</g>
<g>
</g>
<g>
</g>
<g>
</g>
<g>
</g>
<g>
</g>
</svg>
